<svg viewBox="0 0 28 29" fill="none" xmlns="http://www.w3.org/2000/svg"><path d="M27.07 14.82c0 7.4-5.95 13.4-13.29 13.4-7.33 0-13.28-6-13.28-13.4 0-7.41 5.95-13.41 13.28-13.41 7.34 0 13.29 6 13.29 13.4Z" stroke="#fff"/><path fill-rule="evenodd" clip-rule="evenodd" d="M10.66 6.96c.84-.04 1.11-.05 3.27-.05 2.15 0 2.42 0 3.27.05.84.03 1.42.17 1.92.37.53.2 1 .51 1.4.92.4.4.72.88.92 1.42.2.5.33 1.09.37 1.94.04.85.05 1.13.05 3.3s-.01 2.44-.05 3.3a5.91 5.91 0 0 1-.37 1.94 4.02 4.02 0 0 1-2.31 2.34c-.51.2-1.09.33-1.93.37-.85.04-1.12.05-3.27.05-2.16 0-2.43-.01-3.27-.05a5.76 5.76 0 0 1-1.92-.37 4 4 0 0 1-2.32-2.34 5.9 5.9 0 0 1-.37-1.94c-.04-.86-.05-1.13-.05-3.3s0-2.45.05-3.3c.04-.85.17-1.43.37-1.94a4.06 4.06 0 0 1 2.31-2.34 5.8 5.8 0 0 1 1.93-.37Zm6.47 1.44a51.8 51.8 0 0 0-3.2-.05c-2.12 0-2.37 0-3.2.05-.78.03-1.2.16-1.48.27-.37.15-.63.32-.91.6-.26.26-.47.57-.6.92-.1.28-.23.7-.27 1.49a56 56 0 0 0-.04 3.23 56 56 0 0 0 .04 3.23c.04.78.17 1.2.28 1.49a2.62 2.62 0 0 0 1.5 1.52c.28.1.7.23 1.47.27.84.04 1.09.05 3.2.05 2.13 0 2.38-.01 3.21-.05.77-.04 1.2-.17 1.47-.28.37-.14.64-.31.92-.6.26-.25.46-.57.59-.91.1-.29.24-.7.27-1.49.04-.84.05-1.1.05-3.23 0-2.14-.01-2.4-.05-3.23a4.45 4.45 0 0 0-.27-1.49 2.49 2.49 0 0 0-.6-.92 2.46 2.46 0 0 0-.9-.6c-.29-.1-.7-.24-1.48-.27Zm-4.21 8.97a2.62 2.62 0 0 0 3.21-.98 2.69 2.69 0 0 0-1.31-4 2.62 2.62 0 0 0-3.1 1.04 2.68 2.68 0 0 0 1.2 3.94Zm-1.87-5.37a4.07 4.07 0 0 1 6.64 4.48 4.11 4.11 0 0 1-3.76 2.54 4.06 4.06 0 0 1-2.88-1.2 4.13 4.13 0 0 1 0-5.82Zm7.86-.6a.97.97 0 0 0-1.05-1.59.96.96 0 0 0-.58.9.98.98 0 0 0 .95.96 1 1 0 0 0 .68-.26Z" fill="#fff"/></svg>