<svg viewBox="0 0 21 21" fill="none" xmlns="http://www.w3.org/2000/svg"><path d="M16.24 21c-.2 0-.41-.02-.61-.07-3.8-.8-7.3-2.69-10.1-5.44a20.46 20.46 0 0 1-5.47-10.1 2.9 2.9 0 0 1 .82-2.66l2.43-2.39a1.21 1.21 0 0 1 .94-.34 1.2 1.2 0 0 1 .88.55l3.04 4.59a1.01 1.01 0 0 1-.07 1.18l-1.53 1.86a11.68 11.68 0 0 0 2.54 3.66 11.7 11.7 0 0 0 3.69 2.55l1.89-1.54a.98.98 0 0 1 1.13-.07l4.59 3.03a1.23 1.23 0 0 1 .58.9 1.27 1.27 0 0 1-.33 1.03l-2.37 2.4a2.88 2.88 0 0 1-2.05.86Zm-12.1-19.77-2.42 2.4a1.58 1.58 0 0 0-.46 1.49 19.2 19.2 0 0 0 5.11 9.48 19.25 19.25 0 0 0 9.51 5.12 1.64 1.64 0 0 0 1.52-.46l2.37-2.4-4.43-2.93-2.03 1.66a.6.6 0 0 1-.56.1 12.17 12.17 0 0 1-4.47-2.95 12.13 12.13 0 0 1-2.96-4.48.64.64 0 0 1 .14-.59l1.64-2-2.95-4.44Z" fill="#000"/></svg>